<svg xmlns="http://www.w3.org/2000/svg" xmlns:svg="http://www.w3.org/2000/svg" id="svg2" width="72.561" height="46.027" version="1.1" viewBox="0 0 68.026 43.151"><metadata id="metadata40"/><defs id="defs4"><filter id="c" width="1.21" height="1.365" x="-.105" y="-.183" style="color-interpolation-filters:sRGB"><feGaussianBlur id="feGaussianBlur7" stdDeviation="1.598"/></filter><filter id="d" width="1.481" height="1.47" x="-.24" y="-.235" style="color-interpolation-filters:sRGB"><feGaussianBlur id="feGaussianBlur10" stdDeviation="1.598"/></filter></defs><path style="opacity:1;fill:none;stroke:#fc0;stroke-width:3;stroke-linecap:round;stroke-linejoin:miter;stroke-miterlimit:4;stroke-dasharray:none;stroke-opacity:1" id="path3867" d="m 30.637753,17.075268 h 19.5 m -19.5,0 c 0,1.932997 -1.567003,3.5 -3.5,3.5 -1.932997,0 -3.5,-1.567003 -3.5,-3.5 0,-1.932997 1.567003,-3.5 3.5,-3.5 1.932997,0 3.5,1.567003 3.5,3.5 z"/><path id="path3002" d="m 30.637753,17.075268 h 20.5 m -20.5,0 c 0,1.932997 -1.567003,3.5 -3.5,3.5 -1.932997,0 -3.5,-1.567003 -3.5,-3.5 0,-1.932997 1.567003,-3.5 3.5,-3.5 1.932997,0 3.5,1.567003 3.5,3.5 z" style="opacity:.25;fill:none;stroke:#fff;stroke-width:3;stroke-linecap:round;stroke-linejoin:miter;stroke-miterlimit:4;stroke-dasharray:none;stroke-opacity:1"/><g id="g16" transform="matrix(1.6382539,0,0,1.5572263,20.394974,9.4384095)"><rect id="rect18" width="16" height="16" x="0" y="0" style="fill-opacity:0"/></g><circle style="opacity:.76300001;fill:#1a1a1a;fill-opacity:1;fill-rule:evenodd;stroke:none;stroke-width:14.23387146;stroke-miterlimit:4;stroke-dasharray:none;stroke-opacity:1" id="path825" cx="27.149" cy="17.078" r="1.898"/><path style="fill:teal;fill-opacity:.79049294;stroke:none;stroke-width:.9375px;stroke-linecap:butt;stroke-linejoin:miter;stroke-opacity:1" id="path21" d="m 30.137753,13.075268 2.5,1 2,0.5 2,0.5 2.5,0.5 v 2.999999 l -2.5,0.500001 -2,0.5 -2,0.5 -2.5,1 z"/><path id="path3872-9" d="M 3.075268,3.075268 V 40.07527 h 53.4375 l -1.5e-5,-37.000002 z" style="opacity:.25;fill:#ccc;fill-opacity:1;stroke:#b3b3b3;stroke-width:4.27553606;stroke-linecap:butt;stroke-linejoin:round;stroke-miterlimit:4;stroke-dasharray:none;stroke-opacity:1"/><g id="g909" transform="translate(4.137753,9.075268)"><path id="path3088-0" d="M 11.437501,13 H 18" style="fill:#333;stroke:#333;stroke-width:.9375px;stroke-linecap:round;stroke-linejoin:miter;stroke-opacity:1"/><path id="path3088-3-2" d="M 11.437501,3 H 18" style="fill:#333;stroke:#333;stroke-width:.9375px;stroke-linecap:round;stroke-linejoin:miter;stroke-opacity:1"/><path id="path5191-2" d="m 17.187501,19.625 -1.875,-5.625 -1.875,5.625" style="fill:#333;stroke:#333;stroke-width:.9375px;stroke-linecap:round;stroke-linejoin:round;stroke-opacity:1"/><path id="path5195-9" d="m 13.451452,-3.7327 1.875,5.625001 1.875,-5.625001" style="fill:#333;stroke:#333;stroke-width:.9375px;stroke-linecap:round;stroke-linejoin:round;stroke-opacity:1"/></g><path style="fill:#333;stroke:#333;stroke-width:.9375px;stroke-linecap:round;stroke-linejoin:miter;stroke-opacity:1" id="path3088-0-5" d="m 30.405053,24.311317 v 6.562499"/><path style="fill:#333;stroke:#333;stroke-width:.9375px;stroke-linecap:round;stroke-linejoin:miter;stroke-opacity:1" id="path3088-3-2-6" d="m 39.030054,24.186317 v 6.562499"/><path style="fill:#333;stroke:#333;stroke-width:.9375px;stroke-linecap:round;stroke-linejoin:round;stroke-opacity:1" id="path5191-2-4" d="m 23.780053,30.061317 5.625,-1.875 -5.625,-1.875"/><path style="fill:#333;stroke:#333;stroke-width:.9375px;stroke-linecap:round;stroke-linejoin:round;stroke-opacity:1" id="path5195-9-6" d="m 45.762754,26.200268 -5.625001,1.875 5.625001,1.875"/><text style="font-style:normal;font-variant:normal;font-weight:700;font-stretch:normal;font-size:7.5px;line-height:1.25;font-family:sans-serif;-inkscape-font-specification:'sans-serif, Bold';font-variant-ligatures:normal;font-variant-caps:normal;font-variant-numeric:normal;font-feature-settings:normal;text-align:start;letter-spacing:0;word-spacing:0;writing-mode:lr-tb;text-anchor:start;fill:#333;fill-opacity:1;stroke:none;stroke-width:.9375" id="text944" x="30.723" y="37.698" xml:space="preserve"><tspan id="tspan964" x="30.723" y="37.698">h%</tspan></text><text style="font-style:normal;font-variant:normal;font-weight:700;font-stretch:normal;font-size:7.5px;line-height:1.25;font-family:sans-serif;-inkscape-font-specification:'sans-serif, Bold';font-variant-ligatures:normal;font-variant-caps:normal;font-variant-numeric:normal;font-feature-settings:normal;text-align:start;letter-spacing:0;word-spacing:0;writing-mode:lr-tb;text-anchor:start;fill:#333;fill-opacity:1;stroke:none;stroke-width:.9375" id="text944-5" x="5.548" y="19.922" xml:space="preserve"><tspan id="tspan942-4" x="5.548" y="19.922" style="font-style:normal;font-variant:normal;font-weight:700;font-stretch:normal;font-size:7.5px;font-family:sans-serif;-inkscape-font-specification:'sans-serif, Bold';font-variant-ligatures:normal;font-variant-caps:normal;font-variant-numeric:normal;font-feature-settings:normal;text-align:start;writing-mode:lr-tb;text-anchor:start;fill:#333;stroke-width:.9375">v%</tspan></text></svg>